<svg width="29" height="29" fill="none" xmlns="http://www.w3.org/2000/svg"><path d="M21.15 0H7.85C3.521 0 0 3.521 0 7.85v13.3C0 25.48 3.521 29 7.85 29h13.3c4.33 0 7.85-3.521 7.85-7.85V7.85C29 3.521 25.479 0 21.15 0zM14.5 22.43c-4.372 0-7.93-3.558-7.93-7.93s3.558-7.93 7.93-7.93 7.93 3.558 7.93 7.93-3.558 7.93-7.93 7.93zm8.119-13.99a2.345 2.345 0 01-2.343-2.343 2.346 2.346 0 012.343-2.343 2.346 2.346 0 012.343 2.343 2.346 2.346 0 01-2.343 2.344z" fill="#55A630"/><path d="M14.5 8.27a6.236 6.236 0 00-6.23 6.23 6.237 6.237 0 006.23 6.23 6.237 6.237 0 006.23-6.23 6.236 6.236 0 00-6.23-6.23zm8.119-2.816a.644.644 0 10.002 1.288.644.644 0 00-.002-1.288z" fill="#55A630"/></svg>